<svg width="201" height="27" viewBox="0 0 201 27" fill="none" xmlns="http://www.w3.org/2000/svg">
<g id="Group">
<path id="Vector" d="M76.7018 0.960938L69.1313 20.5066H65.1418L57.5781 0.960938H61.4941L67.1393 15.5403L72.7777 0.960938H76.7018Z" fill="#151515"/>
<path id="Vector_2" d="M99.1289 17.8186L101.122 14.7964C103.299 16.3802 105.477 17.1919 107.507 17.1919C109.427 17.1919 110.534 16.3816 110.534 15.0914V15.018C110.534 13.5443 108.467 12.9924 106.179 12.2908C103.338 11.5173 100.09 10.3005 100.09 6.61626V6.54284C100.09 2.82187 103.152 0.573242 107.028 0.573242C109.5 0.573242 112.12 1.42157 114.187 2.7838L112.415 5.95282C110.534 4.81083 108.54 4.11068 106.917 4.11068C105.183 4.11068 104.186 4.95902 104.186 6.02759V6.101C104.186 7.5013 106.29 8.16474 108.577 8.86488C111.382 9.74992 114.629 11.0387 114.629 14.5395V14.6129C114.629 18.7023 111.455 20.7293 107.397 20.7293C104.59 20.7293 101.602 19.7722 99.1289 17.8186Z" fill="#151515"/>
<path id="Vector_3" d="M51.5351 0.964005V2.91626C49.7704 1.44527 47.502 0.556152 45.0225 0.556152C39.4059 0.556152 34.8555 5.09963 34.8555 10.7076C34.8555 16.3156 39.4059 20.8591 45.0225 20.8591C47.502 20.8591 49.7704 19.9713 51.5351 18.4989V20.458H55.1896V0.964005H51.5351ZM45.0225 17.2115C41.4266 17.2115 38.51 14.2981 38.51 10.709C38.51 7.1185 41.4279 4.20643 45.0225 4.20643C48.6185 4.20643 51.5351 7.11986 51.5351 10.709C51.5351 14.2981 48.6185 17.2115 45.0225 17.2115Z" fill="#151515"/>
<path id="Vector_4" d="M155.984 0.963517V2.91577C154.22 1.44478 151.951 0.555664 149.472 0.555664C143.855 0.555664 139.305 5.09914 139.305 10.7071C139.305 16.3151 143.855 20.8586 149.472 20.8586C151.951 20.8586 154.22 19.9708 155.984 18.4985V20.4575H159.639V0.963517H155.984ZM149.472 17.211C145.876 17.211 142.959 14.2976 142.959 10.7085C142.959 7.11801 145.877 4.20595 149.472 4.20595C153.068 4.20595 155.984 7.11937 155.984 10.7085C155.984 14.2976 153.066 17.211 149.472 17.211Z" fill="#151515"/>
<path id="Vector_5" d="M120.838 26.2572V18.4441C122.603 19.9151 124.871 20.8029 127.351 20.8029C132.967 20.8029 137.518 16.2594 137.518 10.6514C137.518 5.04348 132.967 0.5 127.351 0.5C124.871 0.5 122.603 1.38776 120.838 2.86011V0.901055H117.184V26.2559H120.838V26.2572ZM127.351 4.14892C130.947 4.14892 133.863 7.06235 133.863 10.6514C133.863 14.2419 130.945 17.154 127.351 17.154C123.755 17.154 120.838 14.2406 120.838 10.6514C120.838 7.06235 123.755 4.14892 127.351 4.14892Z" fill="#151515"/>
<path id="Vector_6" d="M171.737 17.2067C168.141 17.2067 165.225 14.2933 165.225 10.7042C165.225 7.11372 168.143 4.20166 171.737 4.20166C173.634 4.20166 175.348 5.01736 176.537 6.31297L179.614 4.27371C177.739 2.00197 174.91 0.552734 171.737 0.552734C166.121 0.552734 161.57 5.09621 161.57 10.7042C161.57 16.3122 166.121 20.8556 171.737 20.8556C174.91 20.8556 177.739 19.4064 179.599 17.1347L176.529 15.1036C175.342 16.3992 173.634 17.2067 171.737 17.2067Z" fill="#151515"/>
<path id="Vector_7" d="M97.1857 10.7076C97.1857 10.176 97.1421 9.65942 97.0686 9.1564C96.317 4.28393 92.1015 0.556152 87.0186 0.556152C81.402 0.556152 76.8516 5.09963 76.8516 10.7076C76.8516 16.3156 81.402 20.8591 87.0186 20.8591C90.6282 20.8591 93.8021 18.9802 95.6035 16.147L92.3438 14.4435C91.1701 16.1184 89.2217 17.2101 87.02 17.2101C84.0531 17.2101 81.5518 15.2239 80.7675 12.513H97.0264C97.1162 12.0019 97.1639 11.473 97.1762 10.9333H97.1871V10.7076H97.1857ZM87.0186 4.20507C90.0781 4.20507 92.6393 6.31639 93.3378 9.1564H80.7008C81.3979 6.31639 83.9591 4.20507 87.0186 4.20507Z" fill="#151515"/>
<path id="Vector_8" d="M200.986 10.7076C200.986 10.176 200.943 9.65942 200.869 9.1564C200.118 4.28393 195.902 0.556152 190.819 0.556152C185.203 0.556152 180.652 5.09963 180.652 10.7076C180.652 16.3156 185.203 20.8591 190.819 20.8591C194.429 20.8591 197.603 18.9802 199.404 16.147L196.145 14.4435C194.971 16.1184 193.022 17.2101 190.821 17.2101C187.854 17.2101 185.353 15.2239 184.568 12.513H200.827C200.917 12.0019 200.965 11.473 200.977 10.9333H200.988V10.7076H200.986ZM190.819 4.20507C193.879 4.20507 196.44 6.31639 197.139 9.1564H184.502C185.199 6.31639 187.76 4.20507 190.819 4.20507Z" fill="#151515"/>
<path id="Vector_9" d="M16.917 11.9333C14.7316 13.1514 12.7382 15.3457 11.1084 18.2999C10.6972 19.0354 10.335 19.7709 10.0218 20.5064H7.54643L0.347656 0.574601H5.08194L10.7584 16.6358L16.435 0.574601H21.1447L19.9247 3.95026L22.5812 11.4751C22.5445 11.4384 22.5091 11.4031 22.4723 11.3786C21.0113 10.2693 19.0914 10.7029 16.917 11.9333ZM24.4058 16.6358C24.3336 16.4074 24.2614 16.1777 24.1648 15.9724C23.8992 15.3457 23.5371 14.8386 23.0414 14.4647C22.4015 13.9943 21.6649 13.8135 20.8438 13.8978C20.2515 13.9576 19.6361 14.1629 19.0329 14.5123L21.1951 20.505H27.596L34.7934 0.573242H30.0836L24.4058 16.6358Z" fill="#151515"/>
</g>
</svg>
